<svg width="44" height="44" viewBox="0 0 44 44" fill="none" xmlns="http://www.w3.org/2000/svg">
<path d="M17 9V8H27V9H29V10H31V11H32V12H33V13H34V15H35V17H36V27H35V29H34V31H33V32H32V33H31V34H30V35H29V38H28V37H27V38H26V36H18V38H17V37H16V38H15V35H14V34H13V33H12V32H11V31H10V29H9V27H8V17H9V15H10V13H11V12H12V11H13V10H15V9H17Z" fill="#F8F0DC"/>
<path d="M12 6V10H13V9H15V7H14V6H12Z" fill="#F8F0DC"/>
<path d="M32 6V10H31V9H29V7H30V6H32Z" fill="#F8F0DC"/>
<rect x="18" y="36" width="8" height="1" fill="black"/>
<rect x="18" y="37" width="1" height="3" fill="black"/>
<rect x="25" y="37" width="1" height="3" fill="black"/>
<rect x="16" y="37" width="1" height="1" fill="black"/>
<rect x="15" y="38" width="1" height="1" fill="black"/>
<rect x="14" y="35" width="1" height="5" fill="black"/>
<rect x="17" y="38" width="1" height="1" fill="black"/>
<rect width="1" height="1" transform="matrix(-1 0 0 1 28 37)" fill="black"/>
<rect width="1" height="1" transform="matrix(-1 0 0 1 29 38)" fill="black"/>
<rect width="1" height="5" transform="matrix(-1 0 0 1 30 35)" fill="black"/>
<rect width="1" height="1" transform="matrix(-1 0 0 1 27 38)" fill="black"/>
<rect x="13" y="34" width="1" height="1" fill="black"/>
<rect x="12" y="33" width="1" height="1" fill="black"/>
<rect x="11" y="32" width="1" height="1" fill="black"/>
<rect x="10" y="31" width="1" height="1" fill="black"/>
<rect x="9" y="29" width="1" height="2" fill="black"/>
<rect x="8" y="27" width="1" height="2" fill="black"/>
<rect width="2" height="1" transform="matrix(1 0 0 -1 13 10)" fill="black"/>
<rect x="31" y="10" width="2" height="1" transform="rotate(180 31 10)" fill="black"/>
<rect width="2" height="1" transform="matrix(1 0 0 -1 15 9)" fill="black"/>
<rect width="1" height="5" transform="matrix(1 0 0 -1 11 11)" fill="black"/>
<rect width="1" height="1" transform="matrix(1 0 0 -1 15 8)" fill="black"/>
<rect width="1" height="1" transform="matrix(1 0 0 -1 14 7)" fill="black"/>
<rect width="2" height="1" transform="matrix(1 0 0 -1 12 6)" fill="black"/>
<rect x="33" y="11" width="1" height="5" transform="rotate(180 33 11)" fill="black"/>
<rect x="29" y="8" width="1" height="1" transform="rotate(180 29 8)" fill="black"/>
<rect x="30" y="7" width="1" height="1" transform="rotate(180 30 7)" fill="black"/>
<rect x="32" y="6" width="2" height="1" transform="rotate(180 32 6)" fill="black"/>
<rect x="29" y="9" width="2" height="1" transform="rotate(180 29 9)" fill="black"/>
<rect width="10" height="1" transform="matrix(1 0 0 -1 17 8)" fill="black"/>
<rect width="1" height="1" transform="matrix(1 0 0 -1 12 11)" fill="black"/>
<rect width="1" height="1" transform="matrix(1 0 0 -1 11 12)" fill="black"/>
<rect width="1" height="1" transform="matrix(1 0 0 -1 10 13)" fill="black"/>
<rect width="1" height="2" transform="matrix(1 0 0 -1 9 15)" fill="black"/>
<rect width="1" height="2" transform="matrix(1 0 0 -1 8 17)" fill="black"/>
<rect x="32" y="11" width="1" height="1" transform="rotate(180 32 11)" fill="black"/>
<rect x="33" y="12" width="1" height="1" transform="rotate(180 33 12)" fill="black"/>
<rect x="34" y="13" width="1" height="1" transform="rotate(180 34 13)" fill="black"/>
<rect x="35" y="15" width="1" height="2" transform="rotate(180 35 15)" fill="black"/>
<rect x="36" y="17" width="1" height="2" transform="rotate(180 36 17)" fill="black"/>
<rect width="1" height="1" transform="matrix(-1 0 0 1 31 34)" fill="black"/>
<rect width="1" height="1" transform="matrix(-1 0 0 1 32 33)" fill="black"/>
<rect width="1" height="1" transform="matrix(-1 0 0 1 33 32)" fill="black"/>
<rect width="1" height="1" transform="matrix(-1 0 0 1 34 31)" fill="black"/>
<rect width="1" height="2" transform="matrix(-1 0 0 1 35 29)" fill="black"/>
<rect width="1" height="2" transform="matrix(-1 0 0 1 36 27)" fill="black"/>
<rect x="7" y="17" width="1" height="10" fill="black"/>
<rect x="36" y="17" width="1" height="10" fill="black"/>
<rect x="21" y="25" width="1" height="1" fill="black"/>
<rect x="20" y="26" width="1" height="1" fill="black"/>
<rect x="22" y="31" width="1" height="1" fill="black"/>
<rect x="20" y="27" width="2" height="1" fill="black"/>
<rect x="19" y="28" width="1" height="2" fill="black"/>
<rect x="20" y="30" width="2" height="1" fill="black"/>
<rect x="22" y="28" width="1" height="2" fill="black"/>
</svg>
