<svg width="44" height="44" viewBox="0 0 44 44" fill="none" xmlns="http://www.w3.org/2000/svg">
<path d="M17 14V15H9V16H8V17H7V19H6V20H5V23H4V25H5V27H6V28H7V29H9V30H10V33H11V36H12V38H11V39H10V40H9V42H33V41H34V40H35V38H36V36H37V28H36V26H35V25H34V24H33V23H32V22H30V21H23V19H22V16H23V15H25V14H26V12H27V10H28V7H29V2H25V3H24V4H22V6H21V8H20V10H19V12H18V14H17Z" fill="#F8F0DC"/>
<rect x="9" y="42" width="24" height="1" fill="black"/>
<rect x="8" y="40" width="1" height="2" fill="black"/>
<rect x="9" y="39" width="1" height="1" fill="black"/>
<rect x="10" y="38" width="1" height="1" fill="black"/>
<rect x="16" y="41" width="1" height="1" fill="black"/>
<rect x="17" y="40" width="1" height="1" fill="black"/>
<rect x="18" y="39" width="1" height="1" fill="black"/>
<rect x="19" y="38" width="1" height="1" fill="black"/>
<rect x="20" y="34" width="1" height="4" fill="black"/>
<rect x="21" y="32" width="1" height="2" fill="black"/>
<rect x="22" y="30" width="1" height="2" fill="black"/>
<rect x="23" y="29" width="2" height="1" fill="black"/>
<rect x="11" y="36" width="1" height="2" fill="black"/>
<rect x="10" y="33" width="1" height="3" fill="black"/>
<rect x="9" y="30" width="1" height="3" fill="black"/>
<rect x="7" y="29" width="2" height="1" fill="black"/>
<rect x="6" y="28" width="1" height="1" fill="black"/>
<rect x="5" y="27" width="1" height="1" fill="black"/>
<rect x="5" y="19" width="1" height="1" fill="black"/>
<rect x="6" y="17" width="1" height="2" fill="black"/>
<rect x="12" y="11" width="1" height="3" fill="black"/>
<rect x="13" y="7" width="1" height="4" fill="black"/>
<rect x="14" y="5" width="1" height="2" fill="black"/>
<rect x="17" y="12" width="1" height="2" fill="black"/>
<rect x="18" y="10" width="1" height="2" fill="black"/>
<rect x="19" y="8" width="1" height="2" fill="black"/>
<rect x="20" y="6" width="1" height="2" fill="black"/>
<rect x="21" y="4" width="1" height="2" fill="black"/>
<rect x="22" y="3" width="2" height="1" fill="black"/>
<rect x="24" y="2" width="1" height="1" fill="black"/>
<rect x="29" y="2" width="1" height="5" fill="black"/>
<rect x="28" y="7" width="1" height="3" fill="black"/>
<rect x="27" y="10" width="1" height="2" fill="black"/>
<rect x="26" y="12" width="1" height="2" fill="black"/>
<rect x="25" y="14" width="1" height="1" fill="black"/>
<rect x="23" y="19" width="1" height="2" fill="black"/>
<rect x="22" y="16" width="1" height="3" fill="black"/>
<rect x="23" y="15" width="2" height="1" fill="black"/>
<rect x="30" y="21" width="2" height="1" fill="black"/>
<rect x="32" y="22" width="1" height="1" fill="black"/>
<rect x="33" y="23" width="1" height="1" fill="black"/>
<rect x="34" y="24" width="1" height="1" fill="black"/>
<rect x="35" y="25" width="1" height="1" fill="black"/>
<rect x="35" y="38" width="1" height="2" fill="black"/>
<rect x="34" y="40" width="1" height="1" fill="black"/>
<rect x="33" y="41" width="1" height="1" fill="black"/>
<rect x="36" y="26" width="1" height="2" fill="black"/>
<rect x="36" y="36" width="1" height="2" fill="black"/>
<rect x="37" y="28" width="1" height="8" fill="black"/>
<rect x="24" y="20" width="6" height="1" fill="black"/>
<rect x="25" y="1" width="4" height="1" fill="black"/>
<rect x="15" y="3" width="1" height="2" fill="black"/>
<rect x="16" y="2" width="1" height="1" fill="black"/>
<rect x="22" y="2" width="1" height="1" fill="black"/>
<rect x="17" y="1" width="2" height="1" fill="black"/>
<rect x="19" width="2" height="1" fill="black"/>
<rect x="21" y="1" width="2" height="1" fill="black"/>
<rect x="7" y="16" width="1" height="1" fill="black"/>
<rect x="8" y="15" width="1" height="1" fill="black"/>
<rect x="9" y="14" width="8" height="1" fill="black"/>
<rect x="4" y="25" width="1" height="2" fill="black"/>
<rect x="3" y="23" width="1" height="2" fill="black"/>
<rect x="4" y="20" width="1" height="3" fill="black"/>
<rect x="36" y="40" width="2" height="1" fill="black"/>
<rect x="38" y="39" width="2" height="1" fill="black"/>
<rect x="39" y="35" width="1" height="1" fill="black"/>
<rect x="38" y="34" width="1" height="1" fill="black"/>
<rect x="40" y="36" width="1" height="3" fill="black"/>
<path d="M13 11V14H17V12H18V10H19V8H20V6H21V4H22V2H21V1H19V2H17V3H16V5H15V7H14V11H13Z" fill="#F8F0DC"/>
<rect x="9" y="22" width="2" height="2" fill="black"/>
<path d="M36 38V40H38V39H40V36H39V35H38V36H37V38H36Z" fill="#F8F0DC"/>
</svg>
